<svg width="154" height="60" viewBox="0 0 154 60" fill="none" xmlns="http://www.w3.org/2000/svg">
<g clip-path="url(#clip0_0_1)">
<path d="M16 26L32 36.5652L16 44" stroke="#5C80FE" stroke-width="5"/>
<path d="M50.5117 39.3369C49.6654 40.0563 48.8486 40.5641 48.0615 40.8604C47.2829 41.1566 46.445 41.3047 45.5479 41.3047C44.0667 41.3047 42.9284 40.945 42.1328 40.2256C41.3372 39.4977 40.9395 38.571 40.9395 37.4453C40.9395 36.7852 41.0876 36.1842 41.3838 35.6426C41.6885 35.0924 42.082 34.6523 42.5645 34.3223C43.0553 33.9922 43.6055 33.7425 44.2148 33.5732C44.6634 33.4548 45.3405 33.3405 46.2461 33.2305C48.0911 33.0104 49.4495 32.748 50.3213 32.4434C50.3298 32.1302 50.334 31.9313 50.334 31.8467C50.334 30.9157 50.1182 30.2598 49.6865 29.8789C49.1025 29.3626 48.235 29.1045 47.084 29.1045C46.0091 29.1045 45.2135 29.2949 44.6973 29.6758C44.1895 30.0482 43.8128 30.7126 43.5674 31.6689L41.333 31.3643C41.5361 30.4079 41.8704 29.6377 42.3359 29.0537C42.8014 28.4613 43.4743 28.0085 44.3545 27.6953C45.2347 27.3737 46.2546 27.2129 47.4141 27.2129C48.5651 27.2129 49.5003 27.3483 50.2197 27.6191C50.9391 27.89 51.4681 28.2327 51.8066 28.6475C52.1452 29.0537 52.3822 29.57 52.5176 30.1963C52.5938 30.5856 52.6318 31.2881 52.6318 32.3037V35.3506C52.6318 37.4749 52.6784 38.8206 52.7715 39.3877C52.873 39.9463 53.0677 40.4837 53.3555 41H50.9688C50.7318 40.526 50.5794 39.9717 50.5117 39.3369ZM50.3213 34.2334C49.4919 34.5719 48.2477 34.8597 46.5889 35.0967C45.6494 35.2321 44.985 35.3844 44.5957 35.5537C44.2064 35.723 43.9059 35.9727 43.6943 36.3027C43.4827 36.6243 43.377 36.984 43.377 37.3818C43.377 37.9912 43.6055 38.499 44.0625 38.9053C44.528 39.3115 45.2051 39.5146 46.0938 39.5146C46.974 39.5146 47.7568 39.3242 48.4424 38.9434C49.1279 38.554 49.6315 38.0251 49.9531 37.3564C50.1986 36.8402 50.3213 36.0785 50.3213 35.0713V34.2334ZM59.0739 41H56.9538V22.3887H59.239V29.0283C60.2038 27.818 61.4353 27.2129 62.9333 27.2129C63.7627 27.2129 64.5456 27.3822 65.282 27.7207C66.0267 28.0508 66.6361 28.5205 67.1101 29.1299C67.5925 29.7308 67.9691 30.4587 68.24 31.3135C68.5108 32.1683 68.6462 33.0824 68.6462 34.0557C68.6462 36.3662 68.0749 38.152 66.9323 39.4131C65.7898 40.6742 64.4187 41.3047 62.8191 41.3047C61.2279 41.3047 59.9795 40.6403 59.0739 39.3115V41ZM59.0486 34.1572C59.0486 35.7738 59.2686 36.9417 59.7087 37.6611C60.4281 38.8376 61.4014 39.4258 62.6286 39.4258C63.6273 39.4258 64.4906 38.9941 65.2185 38.1309C65.9463 37.2591 66.3103 35.9642 66.3103 34.2461C66.3103 32.4857 65.959 31.1865 65.2566 30.3486C64.5626 29.5107 63.7204 29.0918 62.7302 29.0918C61.7315 29.0918 60.8682 29.5277 60.1404 30.3994C59.4125 31.2627 59.0486 32.5153 59.0486 34.1572ZM80.9662 41V39.2988C80.1114 40.6361 78.8546 41.3047 77.1957 41.3047C76.1209 41.3047 75.1306 41.0085 74.225 40.416C73.3279 39.8236 72.6297 38.9984 72.1303 37.9404C71.6394 36.874 71.394 35.651 71.394 34.2715C71.394 32.9258 71.6183 31.707 72.0668 30.6152C72.5154 29.515 73.1883 28.6729 74.0854 28.0889C74.9825 27.5049 75.9855 27.2129 77.0942 27.2129C77.9067 27.2129 78.6303 27.3864 79.2651 27.7334C79.8998 28.0719 80.4161 28.5163 80.8139 29.0664V22.3887H83.0864V41H80.9662ZM73.7426 34.2715C73.7426 35.998 74.1065 37.2887 74.8344 38.1436C75.5623 38.9984 76.4213 39.4258 77.4116 39.4258C78.4103 39.4258 79.2566 39.0195 79.9506 38.207C80.6531 37.3861 81.0043 36.1377 81.0043 34.4619C81.0043 32.6169 80.6489 31.2627 79.9379 30.3994C79.227 29.5361 78.351 29.1045 77.31 29.1045C76.2944 29.1045 75.4438 29.5192 74.7582 30.3486C74.0812 31.1781 73.7426 32.4857 73.7426 34.2715ZM89.5793 41H87.4591V22.3887H89.7443V29.0283C90.7091 27.818 91.9406 27.2129 93.4386 27.2129C94.2681 27.2129 95.0509 27.3822 95.7873 27.7207C96.5321 28.0508 97.1414 28.5205 97.6154 29.1299C98.0978 29.7308 98.4744 30.4587 98.7453 31.3135C99.0161 32.1683 99.1515 33.0824 99.1515 34.0557C99.1515 36.3662 98.5802 38.152 97.4377 39.4131C96.2951 40.6742 94.924 41.3047 93.3244 41.3047C91.7332 41.3047 90.4849 40.6403 89.5793 39.3115V41ZM89.5539 34.1572C89.5539 35.7738 89.7739 36.9417 90.214 37.6611C90.9334 38.8376 91.9067 39.4258 93.1339 39.4258C94.1326 39.4258 94.9959 38.9941 95.7238 38.1309C96.4517 37.2591 96.8156 35.9642 96.8156 34.2461C96.8156 32.4857 96.4643 31.1865 95.7619 30.3486C95.0679 29.5107 94.2257 29.0918 93.2355 29.0918C92.2368 29.0918 91.3735 29.5277 90.6457 30.3994C89.9178 31.2627 89.5539 32.5153 89.5539 34.1572ZM102.737 25.0166V22.3887H105.022V25.0166H102.737ZM102.737 41V27.5176H105.022V41H102.737ZM109.294 41V27.5176H111.35V29.4346C112.34 27.9535 113.771 27.2129 115.641 27.2129C116.454 27.2129 117.199 27.361 117.876 27.6572C118.561 27.945 119.073 28.3258 119.412 28.7998C119.75 29.2738 119.987 29.8366 120.123 30.4883C120.207 30.9115 120.25 31.652 120.25 32.71V41H117.964V32.7988C117.964 31.8678 117.876 31.1738 117.698 30.7168C117.52 30.2513 117.203 29.8831 116.746 29.6123C116.297 29.333 115.768 29.1934 115.159 29.1934C114.185 29.1934 113.343 29.5023 112.632 30.1201C111.93 30.738 111.579 31.9102 111.579 33.6367V41H109.294ZM129.535 38.9561L129.866 40.9746C129.222 41.11 128.647 41.1777 128.139 41.1777C127.31 41.1777 126.666 41.0465 126.209 40.7842C125.752 40.5218 125.431 40.179 125.244 39.7559C125.058 39.3242 124.965 38.4229 124.965 37.0518V29.2949H123.289V27.5176H124.965V24.1787L127.238 22.8076V27.5176H129.535V29.2949H127.238V37.1787C127.238 37.8304 127.276 38.2493 127.352 38.4355C127.437 38.6217 127.568 38.7699 127.745 38.8799C127.932 38.9899 128.194 39.0449 128.533 39.0449C128.786 39.0449 129.121 39.0153 129.535 38.9561Z" fill="black"/>
<path d="M40.9908 48.4888H68" stroke="#5C80FE" stroke-width="5"/>
</g>
<defs>
<clipPath id="clip0_0_1">
<rect width="154" height="60" fill="white"/>
</clipPath>
</defs>
</svg>
